<?xml version="1.0" encoding="UTF-8"?>
<!DOCTYPE svg PUBLIC "-//W3C//DTD SVG 1.1//EN" "http://www.w3.org/Graphics/SVG/1.1/DTD/svg11.dtd">
<!-- Creator: CorelDRAW (Evaluation Version) -->
<svg xmlns="http://www.w3.org/2000/svg" xml:space="preserve" width="3.70708in" height="1.75978in" version="1.1" style="shape-rendering:geometricPrecision; text-rendering:geometricPrecision; image-rendering:optimizeQuality; fill-rule:evenodd; clip-rule:evenodd"
viewBox="0 0 3742.15 1776.43"
 xmlns:xlink="http://www.w3.org/1999/xlink"
 xmlns:xodm="http://www.corel.com/coreldraw/odm/2003">
 <defs>
  <style type="text/css">
   <![CDATA[
    .fil2 {fill:#955199}
    .fil1 {fill:#393077}
    .fil0 {fill:#955199;fill-rule:nonzero}
    .fil3 {fill:#393077;fill-rule:nonzero}
   ]]>
  </style>
 </defs>
 <g id="Layer_x0020_1">
  <metadata id="CorelCorpID_0Corel-Layer"/>
  <g id="_416342048">
   <path class="fil0" d="M702.57 523.44l0 10.03c0,39.91 -0.11,79.8 0.13,119.72 0.04,5.61 -1.5,7.3 -7.12,7.14 -10.44,-0.38 -20.92,-0.17 -31.39,0.15 -4.74,0.15 -6.51,-1.12 -6.49,-6.23 0.15,-60.52 0.1,-121.05 0.13,-181.56 0,-10.07 3.17,-18.7 13.08,-22.91 11.06,-4.65 21.6,-2.72 30.96,4.63 2.91,2.29 5.23,5.35 7.57,8.28 37.08,46.14 74.21,92.25 111.03,138.62 4.5,5.65 6.36,5.27 10.58,-0.18 36.27,-46.78 72.88,-93.31 109.29,-140.01 6.41,-8.23 14.02,-13.77 24.93,-13.88 14.73,-0.14 24.87,9.31 25.51,24.06 0.04,1.35 0.03,2.69 0.03,4.01 0,59.18 -0.07,118.36 0.13,177.55 0.04,5.75 -0.99,8.12 -7.38,7.71 -9.35,-0.57 -18.79,-0.56 -28.14,-0.01 -7.11,0.45 -9.59,-1.38 -9.49,-9.1 0.42,-38.55 0.18,-77.11 0.18,-115.68l0 -8.87c-3.44,0.33 -4.07,3.03 -5.41,4.75 -29.15,37.71 -58.2,75.53 -87.37,113.24 -11.13,14.39 -24.13,18.97 -38.49,14.08 -8,-2.72 -13.42,-8.56 -18.38,-14.97 -30.79,-39.52 -61.55,-79.05 -93.88,-120.56z"/>
   <path class="fil0" d="M2909.93 526.3c-14.01,18.16 -28.03,36.28 -42,54.46 -16.18,21 -32.3,42.05 -48.51,63.02 -17.85,23.05 -39.82,23.15 -57.89,0.08 -28.89,-36.9 -57.62,-73.93 -86.43,-110.89 -1.78,-2.32 -3.62,-4.6 -5.72,-7.22 -2.51,2.85 -1.44,5.89 -1.46,8.55 -0.08,39.37 -0.21,78.72 0.12,118.06 0.06,6.55 -1.99,8.2 -8.15,7.95 -10.18,-0.42 -20.4,-0.12 -30.58,0.13 -4.14,0.13 -6.24,-0.5 -6.22,-5.51 0.17,-61.58 0.11,-123.14 0.18,-184.73 0.02,-9.77 4.45,-17.26 13.62,-20.75 11.45,-4.36 22.4,-2.36 31.32,6.17 5.39,5.14 9.84,11.29 14.54,17.12 34.38,42.81 68.84,85.55 102.94,128.61 4.73,5.93 6.49,4.95 10.6,-0.35 36.1,-46.56 72.5,-92.9 108.76,-139.33 4.89,-6.25 10.38,-11.53 18.33,-13.6 18.33,-4.79 32.74,6.62 32.79,26.54 0.17,49.28 0.06,98.52 0.06,147.79 0,10.69 -0.21,21.42 0.1,32.13 0.13,4.61 -1.46,6.07 -5.99,5.97 -10.99,-0.22 -22,-0.48 -32.97,0.07 -6.51,0.35 -5.95,-3.29 -5.95,-7.47 0.06,-39.89 0.03,-79.78 0.03,-119.65l0 -6.41 -1.49 -0.74z"/>
   <path class="fil0" d="M1967.73 594.25l0 -137.41c0,-12.07 0,-12.07 12.48,-12.07 8.58,0 17.18,0.21 25.76,-0.08 4.68,-0.15 6.64,1.03 6.63,6.18 -0.15,60.26 0.01,120.49 -0.21,180.72 -0.06,10.46 -0.63,21.73 -12.27,26.72 -11.85,5.11 -22.94,1.33 -32.05,-6.63 -26.66,-23.26 -52.93,-46.95 -79.31,-70.52 -23.99,-21.42 -47.92,-42.89 -71.9,-64.32 -1.9,-1.74 -3.89,-3.38 -6.04,-5.24 -2.17,3.25 -1.26,6.24 -1.26,9 -0.08,43.91 -0.18,87.81 0.12,131.73 0.03,6.7 -1.8,8.82 -8.52,8.39 -9.87,-0.59 -19.84,-0.41 -29.77,-0.15 -4.65,0.11 -6.56,-0.91 -6.55,-6.15 0.19,-61.58 0,-123.15 0.29,-184.73 0.13,-21.1 13.79,-29.79 33.61,-22.24 7.42,2.83 13.31,7.89 19.11,13.08 47.68,42.75 95.41,85.48 143.13,128.19 1.75,1.57 3.63,2.97 6.76,5.55z"/>
   <path class="fil0" d="M2233.75 594.3l0 -54.42c0,-29.44 0.14,-58.91 -0.11,-88.37 -0.04,-5.19 1.28,-7.04 6.66,-6.86 10.71,0.38 21.45,0.24 32.19,0.06 4.11,-0.1 6.28,0.52 6.25,5.55 -0.18,61.56 0.1,123.17 -0.31,184.73 -0.15,22.54 -16.87,31.8 -36.99,21.46 -5.3,-2.73 -9.73,-6.61 -14.13,-10.53 -48.3,-43.28 -96.61,-86.56 -144.95,-129.8 -1.71,-1.53 -3.1,-3.64 -6.62,-4.25l0 8.62c0,44.18 -0.11,88.36 0.14,132.52 0.03,5.85 -1.18,8.08 -7.46,7.71 -10.43,-0.59 -20.92,-0.37 -31.38,-0.21 -4.21,0.06 -6.21,-0.79 -6.2,-5.68 0.17,-61.59 -0.1,-123.18 0.33,-184.74 0.12,-22.01 15.42,-30.97 35.65,-21.94 6.2,2.77 11.33,7.05 16.35,11.54 48.1,43.1 96.24,86.17 144.37,129.24 1.58,1.41 3.2,2.76 6.21,5.36z"/>
   <path class="fil0" d="M1658.11 574.16c-28.17,0 -56.32,0.15 -84.46,-0.11 -5.34,-0.06 -6.99,1.49 -6.62,6.7 0.44,6.11 0.31,12.31 0.04,18.45 -0.39,8.66 4.04,13.22 11.89,15.71 11.19,3.6 22.74,3.63 34.2,3.68 42.38,0.18 84.75,0.22 127.12,-0.09 6.57,-0.06 8.96,1.51 8.51,8.36 -0.57,9.06 -0.25,18.18 -0.1,27.27 0.08,3.69 -1.01,5.29 -4.98,5.22 -52.27,-0.87 -104.59,1.81 -156.82,-1.6 -14.01,-0.91 -27.27,-5.3 -39.48,-12.42 -16.14,-9.38 -24.84,-23.33 -24.97,-42.05 -0.2,-33.18 -0.37,-66.37 0.04,-99.54 0.3,-25.91 16.15,-42.99 45.76,-51.59 22.81,-6.63 46.16,-5.44 69.43,-5.61 16.39,-0.1 16.58,-0.02 16.32,16.06 -0.14,7.9 3.51,18.45 -1.68,22.94 -4.5,3.91 -14.79,1.19 -22.53,1.36 -16.29,0.37 -32.7,-0.99 -48.74,3.37 -11.26,3.04 -14.08,6.45 -14.1,17.85 -0.03,5.89 0.39,11.82 -0.11,17.65 -0.56,6.24 1.41,8.1 7.88,8.06 54.44,-0.27 108.88,-0.18 163.32,-0.13 12.11,0.01 10.49,-1.41 10.62,10.77 0.04,6.67 -0.5,13.43 0.14,20.06 0.72,7.49 -1.3,10.03 -9.43,9.87 -27.07,-0.58 -54.17,-0.24 -81.25,-0.24z"/>
   <path class="fil0" d="M2358.24 528.08c0,-24.88 0.24,-49.81 -0.17,-74.7 -0.1,-6.49 1.92,-8.16 8.1,-7.85 9.65,0.49 19.35,0.53 28.96,0 6.26,-0.34 8.04,1.46 8.01,7.84 -0.29,43.66 -0.17,87.29 -0.17,130.94 0,22.29 4.51,29.72 26.79,32.13 35.95,3.9 72.26,5.06 108.23,-0.43 17.23,-2.62 22.53,-10.39 22.53,-27.49 0,-44.98 0.11,-89.95 -0.14,-134.93 -0.03,-6.07 1.21,-8.47 7.81,-8.08 10.14,0.63 20.39,0.36 30.55,0.08 4.64,-0.14 6.59,0.81 6.58,6.07 -0.23,48.45 0.21,96.92 -0.27,145.39 -0.32,31.15 -18.21,50.88 -50.19,57.47 -12.91,2.66 -25.94,4.36 -39.09,4.43 -34.03,0.21 -68.15,2.19 -102.04,-2.82 -15.9,-2.36 -30.84,-7.15 -42.1,-19.57 -10.96,-12.11 -13.29,-27.06 -13.38,-42.61 -0.1,-21.94 -0.03,-43.93 -0.03,-65.87z"/>
   <path class="fil0" d="M1069.5 528.78c0,-25.42 0.19,-50.85 -0.15,-76.24 -0.06,-5.81 1.68,-7.23 7.21,-6.99 10.18,0.45 20.39,0.46 30.55,0 5.72,-0.25 7.15,1.63 7.12,7.16 -0.21,46.83 -0.12,93.66 -0.11,140.51 0,14.78 3.6,19.4 17.93,22.77 13.46,3.14 27.22,2.47 40.84,2.58 33.24,0.27 66.48,0.21 99.73,-0.04 5.8,-0.04 8.13,1.18 7.74,7.49 -0.58,9.06 -0.34,18.17 -0.08,27.28 0.13,4.35 -1,6.17 -5.76,6.08 -45.82,-0.84 -91.72,1.69 -137.49,-1.75 -15.25,-1.15 -30.27,-4.11 -43.67,-12.2 -15.18,-9.2 -23.26,-22.85 -23.57,-40.39 -0.45,-25.42 -0.11,-50.85 -0.11,-76.26l-0.17 0z"/>
   <path class="fil0" d="M1295.39 527.45c0,-24.9 0.17,-49.77 -0.11,-74.67 -0.07,-5.47 1.2,-7.52 7.02,-7.23 10.17,0.45 20.4,0.52 30.54,-0.04 6.17,-0.32 7.48,1.65 7.44,7.56 -0.27,46.82 -0.15,93.65 -0.15,140.49 0,14.22 3.69,19.03 17.57,22.35 13.98,3.32 28.25,2.54 42.43,2.65 32.98,0.3 65.97,0.23 98.93,-0.03 5.55,-0.04 7.48,1.36 7.18,7.08 -0.49,9.06 -0.35,18.2 -0.06,27.26 0.15,4.63 -0.74,6.64 -6.04,6.53 -45.29,-0.88 -90.61,1.57 -135.88,-1.68 -15.01,-1.1 -29.77,-3.87 -43.14,-11.31 -18.62,-10.36 -25.67,-27.09 -25.7,-47.5 -0.03,-23.84 -0.01,-47.66 -0.01,-71.45z"/>
   <path class="fil0" d="M2296.46 552.47c0,-33.18 0.18,-66.35 -0.14,-99.53 -0.06,-5.96 1.41,-7.84 7.5,-7.53 10.44,0.53 20.9,0.31 31.36,0.08 4.2,-0.1 6.17,0.66 6.17,5.62 -0.17,67.94 -0.13,135.9 -0.03,203.85 0,4.18 -1.33,5.61 -5.5,5.52 -11,-0.22 -22.01,-0.36 -32.96,0.07 -5.64,0.21 -6.52,-2.06 -6.49,-6.98 0.17,-33.69 0.08,-67.42 0.08,-101.11z"/>
   <path class="fil0" d="M1006.68 553.45c0,-33.47 0.13,-66.9 -0.13,-100.37 -0.06,-5.71 1,-8.04 7.35,-7.68 10.43,0.59 20.9,0.32 31.35,0.08 4.39,-0.1 6.12,0.97 6.11,5.73 -0.14,67.72 -0.15,135.42 0.01,203.14 0.02,5.24 -2.05,6.27 -6.66,6.15 -10.18,-0.27 -20.4,-0.45 -30.57,0.06 -6.01,0.3 -7.7,-1.45 -7.63,-7.56 0.32,-33.18 0.15,-66.37 0.15,-99.56z"/>
   <path class="fil1" d="M517.34 342.21c0,0 50.39,-155.96 287.95,-184.76 237.55,-28.79 487.09,62.38 640.66,235.16l235.16 4.8c-310.93,-435.06 -1043.82,-465.53 -1163.77,-55.2z"/>
   <path class="fil1" d="M693.3 1355.79c0,0 607.92,306.64 874.58,71.54l267.28 53.57c0,0 -479.66,457.25 -1141.86,-125.11z"/>
   <path class="fil2" d="M1077.72 17.23c0,0 -1244.85,-38.42 -292,1306.31l-178.25 -0.73c0,0 644.33,728.31 1279.18,170.34 -334.51,537.74 -1358.66,242.69 -1577.94,-324.49l195.51 13.18c0,0 -164.81,-197.31 -203.52,-433.59 -72.64,-443.19 283.81,-836.24 777.02,-731.03z"/>
   <path class="fil3" d="M1214.61 1115.96c-116.84,0 -151.15,-36.03 -151.15,-136.03l0 -124.4c0,-100.01 34.31,-136.04 151.15,-136.04l274.98 0 0 76.14 -270.9 0c-54.08,0 -67.45,15.71 -67.45,64.54l0 116.27c0,49.41 13.37,63.95 68.02,63.95l270.32 0 0 75.57 -274.98 0z"/>
   <polygon class="fil3" points="1946.28,1115.96 1946.28,957.84 1655.61,957.84 1655.61,1115.96 1567.24,1115.96 1567.24,719.5 1655.61,719.5 1655.61,881.11 1946.28,881.11 1946.28,719.5 2034.06,719.5 2034.06,1115.96 "/>
   <path class="fil3" d="M2266.28 1113.84c-116.75,-4.44 -149.64,-41.77 -145.82,-141.69l9.95 -260.27 87.7 3.37 -9.8 256.76c-1.75,45.89 12.67,64.48 68.43,66.62l235.24 8.96 -2.89 75.53 -242.82 -9.28z"/>
   <polygon class="fil3" points="2582.92,719.5 2671.29,719.5 2671.29,1115.96 2582.92,1115.96 "/>
   <path class="fil3" d="M3132.01 1106.08l-288.93 -272.05 0 281.93 -81.98 0 0 -368.56c0,-25 19.18,-36.62 47.09,-36.62 19.75,0 32.55,5.82 41.27,14.54l291.24 280.78 0 -286.6 83.71 0 0 368.56c0,26.16 -18.02,36.62 -44.18,36.62 -18.6,0 -34.29,-5.23 -48.24,-18.6z"/>
   <polygon class="fil3" points="3621.24,1115.96 3400.32,922.39 3400.32,1115.96 3312.54,1115.96 3312.54,719.5 3400.32,719.5 3400.32,909.01 3616.6,719.5 3735.77,719.5 3509.03,911.91 3742.15,1115.96 "/>
   <polygon class="fil1" points="664.41,882.23 928.45,882.23 928.45,952.59 664.41,952.59 "/>
   <path class="fil1" d="M1005.61 1115.98l0 -75.02 -276.77 0c-51.75,0 -63.37,-12.79 -63.37,-60.46l0 -125.02c0,-45.92 12.21,-61.06 63.37,-61.06l97.69 0 0 -74.99 -97.69 0c-116.86,0 -151.16,36.05 -151.16,136.05l0 110.93c20.11,39.06 41.47,77.48 63.71,115.29 5.41,9.21 10.88,18.38 16.41,27.54 19.3,4.63 42.76,6.74 71.05,6.74l276.77 0z"/>
   <path class="fil1" d="M508.87 795.59l13.42 0 0 -76.17 -39.72 0c7.89,25.71 16.76,51.16 26.3,76.17z"/>
   <path class="fil1" d="M286.13 795.64c-3.69,-15.5 -6.91,-31.46 -9.52,-47.43 -1.53,-9.67 -2.92,-19.35 -4.14,-28.85l-179.14 0 0 0.06 -93.33 0 0 76.17 93.33 0 0 0.06 72.96 0 0 320.32 88.94 0 0 -174.05 0 -146.28 30.89 0z"/>
  </g>
 </g>
</svg>
